<svg xmlns="http://www.w3.org/2000/svg" width="397.222" height="424.616" viewBox="0 0 105.098 112.346">
  <defs/>
  <path fill="#34b6ec" fill-rule="evenodd" d="M7.172 21.292c-.103 6.745.323 13.506 1.423 20.164a96.73 96.73 0 001.33 6.614c1.44 6.056 3.494 11.964 6.197 17.574 5.343 11.093 13.02 20.61 22.352 28.6l.422.362 7.594-4.385-.88-.719C31.42 77.92 21.941 63.48 17.783 45.575a88.368 88.368 0 01-1.105-5.584l-.048-.284 5.761-1.942 6.406-2.16 7.412-2.5 15.082-5.086 5.63 1.899a4.696 4.696 0 012.854-.962 4.718 4.718 0 11-4.61 5.718l-3.874-1.306-14.759 4.977-7.12 2.4-6.994 2.36.154.689C27.399 65.367 39.01 76.74 55.486 90.297l.304.25-.293.264c-4.74 4.262-10.265 7.516-15.725 10.753l-.202.12-.184-.147c-2.013-1.62-4.025-3.244-5.952-4.967C19.248 83.883 9.661 68.349 5.13 49.833a100.488 100.488 0 01-1.362-6.492c-1.284-7.305-1.78-14.737-1.662-22.149A4.713 4.713 0 010 17.263a4.718 4.718 0 019.434 0 4.714 4.714 0 01-2.262 4.029zm61.88 4.054l-17.76-5.987-30.099 10.148-5.14 1.645-.408.13-.033-.427a129.059 129.059 0 01-.075-18.578l.014-.226.215-.072 5.929-1.999L51.292 0l46.442 15.66a4.699 4.699 0 012.647-.813 4.717 4.717 0 11-4.659 5.46l-.863-.269-43.567-14.69-30.633 10.33v8.661l1.036-.349c9.83-3.314 19.66-6.63 29.49-9.943l.107-.037 23.135 7.801-1.17 12.969c-1.197 9.532-4.05 18.55-9.043 26.777a4.717 4.717 0 01.326 1.726 4.718 4.718 0 11-4.448-4.71c3.53-5.911 5.902-12.317 7.268-19.063l.005-.024zm-34.42 29.026a4.718 4.718 0 01.82-9.363 4.718 4.718 0 013.881 7.397c4.872 10.634 12.728 18.146 21.223 25.92l.569.52.53-.558C74.247 65.033 80.712 48.435 81.923 30.31l.228-5.895 5.58 1.882 12.555 4.31-.016.257a115.527 115.527 0 01-.465 5.497c-3.292 30.231-18.284 53.248-43.407 70.054-.567.379-1.136.753-1.708 1.123v.091a4.718 4.718 0 11-2.805-4.314c14.716-9.5 26.92-21.775 34.578-37.67 4.72-9.8 7.394-20.376 8.437-31.183l.06-.63-8.022-2.558-.081.983c-1.57 18.95-8.298 35.555-21.443 49.432a87.134 87.134 0 01-3.499 3.485l-.206.195-.229-.17c-11.332-8.45-21.021-17.73-26.849-30.827"/>
</svg>
